# This file uses centimeters as units for non-parametric coordinates.

g default
v -34.803047 0.000000 -9.282909
v -12.553572 0.000000 -9.282909
v -34.803047 0.000000 -14.133295
v -12.553572 0.000000 -14.133295
v -34.803047 0.000000 -18.983679
v -12.553572 0.000000 -18.983679
v -34.803047 0.000000 -25.450859
v -12.553572 0.000000 -25.450859
v -7.403102 0.000000 -14.133295
v -7.403102 0.000000 -18.983679
v -11.165346 0.000000 -18.983679
v -11.165346 0.000000 -14.133295
v -11.165346 0.000000 -27.754402
v -7.403102 0.000000 -27.754402
v -7.403102 0.000000 -24.914330
v -11.165346 0.000000 -24.914330
v 0.882436 0.000000 -24.914330
v 0.882436 0.000000 -27.754402
v -2.767841 0.000000 -27.754402
v -2.767841 0.000000 -24.914330
v -2.767841 0.000000 -30.628216
v 0.882436 0.000000 -30.628216
v -11.165346 0.000000 2.437768
v -7.403102 0.000000 2.437768
v -7.403103 0.000000 -6.287945
v -11.165346 0.000000 -6.287945
v -7.403103 0.000000 -2.579377
v -11.165346 0.000000 -2.579377
v -7.403085 0.000000 -11.008168
v -11.165329 0.000000 -11.008168
v -7.403103 0.000000 -15.213531
v -11.165346 0.000000 -15.213531
v -12.553572 0.000000 -15.213531
v -34.803047 0.000000 -15.213531
v 14.595650 0.000000 -14.133295
v 14.595650 0.000000 -11.008168
v -6.182157 0.000000 -14.133295
v -6.182157 0.000000 -11.008168
v -6.182157 0.000000 -20.546547
v 14.595650 0.000000 -20.546547
v -6.182157 0.000000 -4.552129
v 14.595650 0.000000 -4.552129
v 19.808168 0.000000 -2.579377
v 19.808168 0.000000 2.437768
v -4.257649 0.000000 2.437768
v -4.257651 0.000000 -2.579377
v -4.257649 0.000000 26.811481
v 19.808168 0.000000 26.811481
v -4.257649 0.000000 13.208925
v 19.808168 0.000000 13.208925
v -13.942448 0.000000 13.208925
v -13.942448 0.000000 26.811481
v -13.942448 0.000000 18.827467
v -4.257645 0.000000 18.827467
v 19.808168 0.000000 18.827467
v -13.942448 0.000000 22.077480
v -4.257645 0.000000 22.077480
v 19.808168 0.000000 22.077480
v -32.020412 0.000000 18.827467
v -32.020412 0.000000 22.077480
v -26.476513 0.000000 22.077480
v -26.476513 0.000000 18.827467
v -26.476513 0.000000 30.382286
v -32.020412 0.000000 30.382286
v 17.118553 0.000000 -14.133295
v 17.118553 0.000000 -11.008168
v 35.909286 0.000000 -14.133295
v 35.909286 0.000000 -11.008168
v 17.118553 0.000000 -25.007702
v 35.909286 0.000000 -25.007702
v 17.118553 0.000000 -4.764327
v 35.909286 0.000000 -4.764327
v 3.309102 0.000000 26.811481
v 3.309107 0.000000 22.077480
v 3.309107 0.000000 18.827467
v 3.309102 0.000000 13.208925
v 3.309102 0.000000 2.437768
v 3.309102 0.000000 -2.579377
v 9.835002 0.000000 26.811481
v 9.835007 0.000000 22.077480
v 9.835007 0.000000 18.827467
v 9.835002 0.000000 13.208925
v 9.835002 0.000000 2.437768
v 9.835002 0.000000 -2.579377
v 24.231468 0.000000 -4.764327
v 24.231468 0.000000 -11.008168
v 24.231468 0.000000 -14.133295
v 24.231468 0.000000 -25.007702
v 28.791628 0.000000 -4.764327
v 28.791628 0.000000 -11.008168
v 28.791628 0.000000 -14.133295
v 28.791628 0.000000 -25.007702
v 24.231468 0.000000 5.090776
v 28.791628 0.000000 5.090776
v 28.791628 0.000000 -3.131480
v 24.231468 0.000000 -3.131480
v 38.387260 0.000000 -3.131480
v 38.387260 0.000000 5.090776
v 20.852949 0.000000 -3.131480
v 20.852949 0.000000 5.090776
v 24.231468 0.000000 6.971911
v 28.791628 0.000000 6.971911
v 24.231468 0.000000 15.291538
v 28.791628 0.000000 15.291538
v 38.333454 0.000000 6.971911
v 38.333454 0.000000 15.291538
v 20.871666 0.000000 6.971911
v 20.871666 0.000000 15.291538
v 34.920040 0.000000 15.291538
v 34.920040 0.000000 6.971911
v 34.920040 0.000000 26.871904
v 38.333454 0.000000 26.871904
v 34.920040 0.000000 22.198074
v 38.333454 0.000000 22.198074
v 20.882832 0.000000 22.198074
v 20.882832 0.000000 26.871904
v 34.920040 0.000000 17.782656
v 38.333454 0.000000 17.782656
v 34.920040 0.000000 20.553581
v 38.333454 0.000000 20.553581
v 22.269201 0.000000 17.782656
v 22.269201 0.000000 20.553581
v -4.257649 0.000000 4.493683
v 3.309102 0.000000 4.493683
v 9.835002 0.000000 4.493683
v 19.808168 0.000000 4.493683
v -4.257649 0.000000 11.126106
v 3.309102 0.000000 11.126106
v 9.835002 0.000000 11.126106
v 19.808168 0.000000 11.126106
v -35.682701 0.000000 4.493683
v -35.682701 0.000000 11.126106
v -13.807196 0.000000 4.493683
v -13.807196 0.000000 11.126104
v -13.807196 0.000000 -7.231481
v -35.682701 0.000000 -7.231481
v -26.477882 0.000000 11.126104
v -26.477882 0.000000 4.493683
v -26.477882 0.000000 -7.231481
v -31.920862 0.000000 11.126104
v -31.920862 0.000000 4.493683
v -31.920862 0.000000 -7.231481
vt 0.600240 0.986179
vt 0.535017 0.986179
vt 0.535017 0.686992
vt 0.600240 0.686992
vt 0.614766 0.686992
vt 0.614766 0.986179
vt 0.665463 0.686992
vt 0.665463 0.986179
vt 0.614766 0.668324
vt 0.600240 0.668324
vt 0.752427 0.686992
vt 0.752427 0.986179
vt 0.665463 0.668324
vt 0.600240 0.617733
vt 0.614766 0.617733
vt 0.665463 0.617733
vt 0.558217 0.668324
vt 0.558217 0.617733
vt 0.745212 0.617733
vt 0.745212 0.668324
vt 0.494744 0.668324
vt 0.494744 0.617733
vt 0.558217 0.601315
vt 0.600240 0.601315
vt 0.783403 0.617733
vt 0.783403 0.668324
vt 0.444875 0.668324
vt 0.444875 0.617733
vt 0.558217 0.321917
vt 0.600240 0.321917
vt 0.745212 0.555403
vt 0.783403 0.555403
vt 0.377410 0.668324
vt 0.377410 0.617733
vt 0.471403 0.601315
vt 0.471403 0.321917
vt 0.558217 0.287992
vt 0.600240 0.287992
vt 0.686479 0.321917
vt 0.686479 0.601315
vt 0.745212 0.506318
vt 0.783403 0.506318
vt 0.377410 0.575437
vt 0.444875 0.575437
vt 0.558217 0.192344
vt 0.600240 0.192344
vt 0.822047 0.506318
vt 0.822047 0.555403
vt 0.377410 0.473687
vt 0.444875 0.473687
vt 0.474256 0.287992
vt 0.474256 0.192344
vt 0.558217 0.131024
vt 0.600240 0.131024
vt 0.746468 0.192344
vt 0.746468 0.287992
vt 0.349764 0.575437
vt 0.349764 0.473687
vt 0.377410 0.385933
vt 0.444875 0.385933
vt 0.474256 0.131024
vt 0.558217 0.035313
vt 0.600240 0.035313
vt 0.746468 0.131024
vt 0.260578 0.575437
vt 0.260578 0.473687
vt 0.349764 0.385933
vt 0.377410 0.251824
vt 0.444875 0.251824
vt 0.452299 0.192344
vt 0.452299 0.131024
vt 0.474256 0.035313
vt 0.746468 0.035313
vt 0.349764 0.703849
vt 0.260578 0.703849
vt 0.232570 0.575437
vt 0.232570 0.473687
vt 0.260578 0.385933
vt 0.349764 0.251824
vt 0.341735 0.192344
vt 0.341735 0.131024
vt 0.349764 0.874231
vt 0.260578 0.874231
vt 0.157018 0.575436
vt 0.157018 0.473687
vt 0.232570 0.385933
vt 0.260578 0.251824
vt 0.452299 0.237775
vt 0.341735 0.237775
vt 0.316439 0.192344
vt 0.316439 0.131024
vt 0.341735 0.001992
vt 0.452299 0.001992
vt 0.507432 0.874231
vt 0.507432 0.703849
vt 0.349764 0.947423
vt 0.260578 0.947423
vt 0.232570 0.705668
vt 0.157018 0.705668
vt 0.113315 0.575436
vt 0.113315 0.473687
vt 0.157018 0.385933
vt 0.232570 0.251824
vt 0.204566 0.192344
vt 0.204566 0.131024
vt 0.507432 0.947423
vt 0.349764 0.998008
vt 0.260578 0.998008
vt 0.157018 0.948761
vt 0.157018 0.874213
vt 0.113315 0.705668
vt 0.049657 0.575437
vt 0.049657 0.473687
vt 0.157018 0.251824
vt 0.316439 0.237524
vt 0.204566 0.237524
vt 0.204566 0.048616
vt 0.316439 0.048616
vt 0.507432 0.998008
vt 0.113315 0.874213
vt 0.113315 0.948761
vt 0.049657 0.705668
vt 0.113315 0.385933
vt 0.113315 0.251824
vt 0.204566 0.002716
vt 0.316439 0.002716
vt 0.001641 0.948761
vt 0.001641 0.874213
vt 0.049657 0.385933
vt 0.049657 0.251824
vt 0.171068 0.048616
vt 0.171068 0.002716
vt 0.133807 0.048616
vt 0.133807 0.002716
vt 0.171068 0.218731
vt 0.133807 0.218731
vt 0.111694 0.048616
vt 0.111694 0.002716
vt 0.048845 0.048616
vt 0.048845 0.002716
vt 0.111694 0.237373
vt 0.048845 0.237373
vn 0.000000 1.000000 0.000000
vn 0.000000 1.000000 0.000000
vn 0.000000 1.000000 0.000000
vn 0.000000 1.000000 0.000000
vn 0.000000 1.000000 0.000000
vn 0.000000 1.000000 0.000000
vn 0.000000 1.000000 0.000000
vn 0.000000 1.000000 0.000000
vn 0.000000 1.000000 0.000000
vn 0.000000 1.000000 0.000000
vn 0.000000 1.000000 0.000000
vn 0.000000 1.000000 0.000000
vn 0.000000 1.000000 0.000000
vn 0.000000 1.000000 0.000000
vn 0.000000 1.000000 0.000000
vn 0.000000 1.000000 0.000000
vn 0.000000 1.000000 0.000000
vn 0.000000 1.000000 0.000000
vn 0.000000 1.000000 0.000000
vn 0.000000 1.000000 0.000000
vn 0.000000 1.000000 0.000000
vn 0.000000 1.000000 0.000000
vn 0.000000 1.000000 0.000000
vn 0.000000 1.000000 0.000000
vn 0.000000 1.000000 0.000000
vn 0.000000 1.000000 0.000000
vn 0.000000 1.000000 0.000000
vn 0.000000 1.000000 0.000000
vn 0.000000 1.000000 0.000000
vn 0.000000 1.000000 0.000000
vn 0.000000 1.000000 0.000000
vn 0.000000 1.000000 0.000000
vn 0.000000 1.000000 0.000000
vn 0.000000 1.000000 0.000000
vn 0.000000 1.000000 0.000000
vn 0.000000 1.000000 0.000000
vn 0.000000 1.000000 0.000000
vn 0.000000 1.000000 0.000000
vn 0.000000 1.000000 0.000000
vn 0.000000 1.000000 0.000000
vn 0.000000 1.000000 0.000000
vn 0.000000 1.000000 0.000000
vn 0.000000 1.000000 0.000000
vn 0.000000 1.000000 0.000000
vn 0.000000 1.000000 0.000000
vn 0.000000 1.000000 0.000000
vn 0.000000 1.000000 0.000000
vn 0.000000 1.000000 0.000000
vn 0.000000 1.000000 0.000000
vn 0.000000 1.000000 0.000000
vn 0.000000 1.000000 0.000000
vn 0.000000 1.000000 0.000000
vn 0.000000 1.000000 0.000000
vn 0.000000 1.000000 0.000000
vn 0.000000 1.000000 0.000000
vn 0.000000 1.000000 0.000000
vn 0.000000 1.000000 0.000000
vn 0.000000 1.000000 0.000000
vn 0.000000 1.000000 0.000000
vn 0.000000 1.000000 0.000000
vn 0.000000 1.000000 0.000000
vn 0.000000 1.000000 0.000000
vn 0.000000 1.000000 0.000000
vn 0.000000 1.000000 0.000000
vn 0.000000 1.000000 0.000000
vn 0.000000 1.000000 0.000000
vn 0.000000 1.000000 0.000000
vn 0.000000 1.000000 0.000000
vn 0.000000 1.000000 0.000000
vn 0.000000 1.000000 0.000000
vn 0.000000 1.000000 0.000000
vn 0.000000 1.000000 0.000000
vn 0.000000 1.000000 0.000000
vn 0.000000 1.000000 0.000000
vn 0.000000 1.000000 0.000000
vn 0.000000 1.000000 0.000000
vn 0.000000 1.000000 0.000000
vn 0.000000 1.000000 0.000000
vn 0.000000 1.000000 0.000000
vn 0.000000 1.000000 0.000000
vn 0.000000 1.000000 0.000000
vn 0.000000 1.000000 0.000000
vn 0.000000 1.000000 0.000000
vn 0.000000 1.000000 0.000000
vn 0.000000 1.000000 0.000000
vn 0.000000 1.000000 0.000000
vn 0.000000 1.000000 0.000000
vn 0.000000 1.000000 0.000000
vn 0.000000 1.000000 0.000000
vn 0.000000 1.000000 0.000000
vn 0.000000 1.000000 0.000000
vn 0.000000 1.000000 0.000000
vn 0.000000 1.000000 0.000000
vn 0.000000 1.000000 0.000000
vn 0.000000 1.000000 0.000000
vn 0.000000 1.000000 0.000000
vn 0.000000 1.000000 0.000000
vn 0.000000 1.000000 0.000000
vn 0.000000 1.000000 0.000000
vn 0.000000 1.000000 0.000000
vn 0.000000 1.000000 0.000000
vn 0.000000 1.000000 0.000000
vn 0.000000 1.000000 0.000000
vn 0.000000 1.000000 0.000000
vn 0.000000 1.000000 0.000000
vn 0.000000 1.000000 0.000000
vn 0.000000 1.000000 0.000000
vn 0.000000 1.000000 0.000000
vn 0.000000 1.000000 0.000000
vn 0.000000 1.000000 0.000000
vn 0.000000 1.000000 0.000000
vn 0.000000 1.000000 0.000000
vn 0.000000 1.000000 0.000000
vn 0.000000 1.000000 0.000000
vn 0.000000 1.000000 0.000000
vn 0.000000 1.000000 0.000000
vn 0.000000 1.000000 0.000000
vn 0.000000 1.000000 0.000000
vn 0.000000 1.000000 0.000000
vn 0.000000 1.000000 0.000000
vn 0.000000 1.000000 0.000000
vn 0.000000 1.000000 0.000000
vn 0.000000 1.000000 0.000000
vn 0.000000 1.000000 0.000000
vn 0.000000 1.000000 0.000000
vn 0.000000 1.000000 0.000000
vn 0.000000 1.000000 0.000000
vn 0.000000 1.000000 0.000000
vn 0.000000 1.000000 0.000000
vn 0.000000 1.000000 0.000000
vn 0.000000 1.000000 0.000000
vn 0.000000 1.000000 0.000000
vn 0.000000 1.000000 0.000000
vn 0.000000 1.000000 0.000000
vn 0.000000 1.000000 0.000000
vn 0.000000 1.000000 0.000000
vn 0.000000 1.000000 0.000000
vn 0.000000 1.000000 0.000000
vn 0.000000 1.000000 0.000000
vn 0.000000 1.000000 0.000000
vn 0.000000 1.000000 0.000000
vn 0.000000 1.000000 0.000000
vn 0.000000 1.000000 0.000000
vn 0.000000 1.000000 0.000000
vn 0.000000 1.000000 0.000000
vn 0.000000 1.000000 0.000000
vn 0.000000 1.000000 0.000000
vn 0.000000 1.000000 0.000000
vn 0.000000 1.000000 0.000000
vn 0.000000 1.000000 0.000000
vn 0.000000 1.000000 0.000000
vn 0.000000 1.000000 0.000000
vn 0.000000 1.000000 0.000000
vn 0.000000 1.000000 0.000000
vn 0.000000 1.000000 0.000000
vn 0.000000 1.000000 0.000000
vn 0.000000 1.000000 0.000000
vn 0.000000 1.000000 0.000000
vn 0.000000 1.000000 0.000000
vn 0.000000 1.000000 0.000000
vn 0.000000 1.000000 0.000000
vn 0.000000 1.000000 0.000000
vn 0.000000 1.000000 0.000000
vn 0.000000 1.000000 0.000000
vn 0.000000 1.000000 0.000000
vn 0.000000 1.000000 0.000000
vn 0.000000 1.000000 0.000000
vn 0.000000 1.000000 0.000000
vn 0.000000 1.000000 0.000000
vn 0.000000 1.000000 0.000000
vn 0.000000 1.000000 0.000000
vn 0.000000 1.000000 0.000000
vn 0.000000 1.000000 0.000000
vn 0.000000 1.000000 0.000000
vn 0.000000 1.000000 0.000000
vn 0.000000 1.000000 0.000000
vn 0.000000 1.000000 0.000000
vn 0.000000 1.000000 0.000000
vn 0.000000 1.000000 0.000000
vn 0.000000 1.000000 0.000000
vn 0.000000 1.000000 0.000000
vn 0.000000 1.000000 0.000000
vn 0.000000 1.000000 0.000000
vn 0.000000 1.000000 0.000000
vn 0.000000 1.000000 0.000000
vn 0.000000 1.000000 0.000000
vn 0.000000 1.000000 0.000000
vn 0.000000 1.000000 0.000000
vn 0.000000 1.000000 0.000000
vn 0.000000 1.000000 0.000000
vn 0.000000 1.000000 0.000000
vn 0.000000 1.000000 0.000000
vn 0.000000 1.000000 0.000000
vn 0.000000 1.000000 0.000000
vn 0.000000 1.000000 0.000000
vn 0.000000 1.000000 0.000000
vn 0.000000 1.000000 0.000000
vn 0.000000 1.000000 0.000000
vn 0.000000 1.000000 0.000000
vn 0.000000 1.000000 0.000000
vn 0.000000 1.000000 0.000000
vn 0.000000 1.000000 0.000000
vn 0.000000 1.000000 0.000000
vn 0.000000 1.000000 0.000000
s 1
g pPlane1
f 3/1/1 1/2/2 2/3/3 4/4/4
f 33/5/5 34/6/6 3/1/1 4/4/4
f 8/11/7 7/12/8 5/8/9 6/7/10
f 9/14/11 31/15/12 32/9/13 12/10/14
f 32/9/13 33/5/5 4/4/4 12/10/14
s 3
f 11/13/15 10/16/16 15/19/17 16/20/18
f 16/20/18 15/19/17 14/25/19 13/26/20
s 4
f 19/32/21 20/31/22 17/41/23 18/42/24
f 14/25/25 15/19/26 20/31/22 19/32/21
f 19/32/21 18/42/24 22/47/27 21/48/28
s 1
f 27/28/29 28/27/30 23/33/31 24/34/32
f 29/18/33 30/17/34 26/21/35 25/22/36
f 25/22/36 26/21/35 28/27/30 27/28/29
f 9/14/11 12/10/14 30/17/34 29/18/33
f 31/15/12 10/16/37 11/13/38 32/9/13
f 11/13/38 6/7/10 33/5/5 32/9/13
f 6/7/10 5/8/9 34/6/6 33/5/5
f 37/24/39 38/23/40 36/29/41 35/30/42
f 9/14/11 29/18/33 38/23/40 37/24/39
s off
f 37/24/43 35/30/44 40/39/45 39/40/46
f 36/29/47 38/23/48 41/35/49 42/36/50
s 6
f 27/28/51 24/34/52 45/43/53 46/44/54
f 46/44/54 45/43/53 77/49/55 78/50/56
s 7
f 77/49/57 45/43/58 123/57/59 124/58/60
f 76/77/61 49/76/62 54/84/63 75/85/64
s 9
f 54/84/65 49/76/66 51/98/67 53/99/68
f 57/100/69 54/84/65 53/99/68 56/111/70
s 7
f 75/85/64 54/84/63 57/100/71 74/101/72
s 9
f 47/112/73 57/100/69 56/111/70 52/122/74
s 7
f 74/101/72 57/100/71 47/112/75 73/113/76
s 10
f 61/120/77 62/110/78 59/109/79 60/121/80
f 56/111/81 53/99/82 62/110/78 61/120/77
f 61/120/77 60/121/80 64/127/83 63/128/84
s off
f 35/30/85 36/29/86 66/37/87 65/38/88
s 11
f 65/38/89 66/37/90 86/45/91 87/46/92
s 12
f 65/38/93 87/46/94 88/55/95 69/56/96
s 13
f 86/45/97 66/37/98 71/51/99 85/52/100
s 7
f 82/86/101 76/77/61 75/85/64 81/102/102
f 83/59/103 77/49/57 124/58/60 125/67/104
s 6
f 78/50/56 77/49/55 83/59/105 84/60/106
s 7
f 58/124/107 80/123/108 79/129/109 48/130/110
f 55/114/111 81/102/102 80/123/108 58/124/107
f 50/103/112 82/86/101 81/102/102 55/114/111
f 44/68/113 83/59/103 125/67/104 126/79/114
s 6
f 84/60/106 83/59/105 44/68/115 43/69/116
s 13
f 90/53/117 86/45/97 85/52/100 89/61/118
s 11
f 87/46/92 86/45/91 90/53/119 91/54/120
s 12
f 88/55/95 87/46/94 91/54/121 92/64/122
s 13
f 68/62/123 90/53/117 89/61/118 72/72/124
s 11
f 91/54/120 90/53/119 68/62/125 67/63/126
s 12
f 92/64/122 91/54/121 67/63/127 70/73/128
s 15
f 95/71/129 96/70/130 93/80/131 94/81/132
f 89/61/133 85/52/134 96/70/130 95/71/129
s off
f 95/71/135 94/81/136 98/92/137 97/93/138
f 93/80/139 96/70/140 99/88/141 100/89/142
f 94/81/143 93/80/144 101/90/145 102/91/146
f 102/91/147 101/90/148 103/104/149 104/105/150
s 16
f 102/91/151 104/105/152 109/117/153 110/118/154
s off
f 103/104/155 101/90/156 107/115/157 108/116/158
s 16
f 110/118/154 109/117/153 106/125/159 105/126/160
s 17
f 106/125/161 109/117/162 117/131/163 118/132/164
f 114/138/165 113/137/166 111/139/167 112/140/168
s off
f 111/139/169 113/137/170 115/141/171 116/142/172
s 17
f 118/132/164 117/131/163 119/133/173 120/134/174
f 120/134/174 119/133/173 113/137/166 114/138/165
s off
f 119/133/175 117/131/176 121/135/177 122/136/178
s 7
f 124/58/60 123/57/59 127/65/179 128/66/180
f 125/67/104 124/58/60 128/66/180 129/78/181
f 126/79/114 125/67/104 129/78/181 130/87/182
f 128/66/180 127/65/179 49/76/62 76/77/61
f 129/78/181 128/66/180 76/77/61 82/86/101
f 130/87/182 129/78/181 82/86/101 50/103/112
s 19
f 127/65/183 123/57/184 133/74/185 134/75/186
f 140/97/187 141/96/188 131/107/189 132/108/190
s 21
f 131/107/191 141/96/192 142/106/193 136/119/194
s 19
f 134/75/186 133/74/185 138/82/195 137/83/196
s 21
f 139/94/197 138/82/198 133/74/199 135/95/200
s 19
f 137/83/196 138/82/195 141/96/188 140/97/187
s 21
f 142/106/193 141/96/192 138/82/198 139/94/197
s off
f 137/83/201 140/97/202 59/109/203 62/110/204
