# This file uses centimeters as units for non-parametric coordinates.

g default
v -77.767120 0.000000 -23.160475
v -29.078171 0.000000 -23.160475
v -77.767120 0.000000 -35.359329
v -29.078171 0.000000 -35.359329
v -77.767120 0.000000 -47.558167
v -29.078171 0.000000 -47.558167
v -77.767120 0.000000 -63.823303
v -29.078171 0.000000 -63.823303
v -17.807289 0.000000 -35.359329
v -17.807289 0.000000 -47.558167
v -26.040281 0.000000 -47.558167
v -26.040281 0.000000 -35.359329
v -26.040281 0.000000 -69.616776
v -17.807289 0.000000 -69.616776
v -17.807289 0.000000 -62.473915
v -26.040281 0.000000 -62.473915
v 0.324114 0.000000 -62.473915
v 0.324114 0.000000 -69.616776
v -7.663858 0.000000 -69.616776
v -7.663858 0.000000 -62.473915
v -7.663858 0.000000 -76.844498
v 0.324114 0.000000 -76.844498
v -26.040281 0.000000 6.317346
v -17.807289 0.000000 6.317346
v -17.807293 0.000000 -15.628069
v -26.040281 0.000000 -15.628069
v -17.807293 0.000000 -6.300910
v -26.040281 0.000000 -6.300910
v -17.807251 0.000000 -27.499550
v -26.040245 0.000000 -27.499550
v -17.807293 0.000000 -38.076149
v -26.040281 0.000000 -38.076149
v -29.078171 0.000000 -38.076149
v -77.767120 0.000000 -38.076149
v 30.333000 0.000000 -35.359329
v 30.333000 0.000000 -27.499550
v -15.135470 0.000000 -35.359329
v -15.135470 0.000000 -27.499550
v -15.135470 0.000000 -51.488823
v 30.333000 0.000000 -51.488823
v -15.135470 0.000000 -11.262433
v 30.333000 0.000000 -11.262433
v 41.739662 0.000000 -6.300910
v 41.739662 0.000000 6.317346
v -10.924035 0.000000 6.317346
v -10.924038 0.000000 -6.300910
v -10.924035 0.000000 67.617905
v 41.739662 0.000000 67.617905
v -10.924035 0.000000 33.407127
v 41.739662 0.000000 33.407127
v -32.117466 0.000000 33.407127
v -32.117466 0.000000 67.617905
v -32.117466 0.000000 47.537918
v -10.924024 0.000000 47.537918
v 41.739662 0.000000 47.537918
v -32.117466 0.000000 55.711792
v -10.924024 0.000000 55.711792
v 41.739662 0.000000 55.711792
v -71.677826 0.000000 47.537918
v -71.677826 0.000000 55.711792
v -59.546013 0.000000 55.711792
v -59.546013 0.000000 47.537918
v -59.546013 0.000000 76.598625
v -71.677826 0.000000 76.598625
v 35.853920 0.000000 -35.359329
v 35.853920 0.000000 -27.499550
v 76.974113 0.000000 -35.359329
v 76.974113 0.000000 -27.499550
v 35.853920 0.000000 -62.708755
v 76.974113 0.000000 -62.708755
v 35.853920 0.000000 -11.796120
v 76.974113 0.000000 -11.796120
v 5.634436 0.000000 67.617905
v 5.634446 0.000000 55.711792
v 5.634446 0.000000 47.537918
v 5.634436 0.000000 33.407127
v 5.634436 0.000000 6.317346
v 5.634436 0.000000 -6.300910
v 19.915180 0.000000 67.617905
v 19.915199 0.000000 55.711792
v 19.915199 0.000000 47.537918
v 19.915180 0.000000 33.407127
v 19.915180 0.000000 6.317346
v 19.915180 0.000000 -6.300910
v 51.419258 0.000000 -11.796120
v 51.419258 0.000000 -27.499550
v 51.419258 0.000000 -35.359329
v 51.419258 0.000000 -62.708755
v 61.398346 0.000000 -11.796120
v 61.398346 0.000000 -27.499550
v 61.398346 0.000000 -35.359329
v 61.398346 0.000000 -62.708755
v 51.419258 0.000000 12.989732
v 61.398346 0.000000 12.989732
v 61.398346 0.000000 -7.689469
v 51.419258 0.000000 -7.689469
v 82.396660 0.000000 -7.689469
v 82.396660 0.000000 12.989732
v 44.025986 0.000000 -7.689469
v 44.025986 0.000000 12.989732
v 51.419258 0.000000 17.720839
v 61.398346 0.000000 17.720839
v 51.419258 0.000000 38.644955
v 61.398346 0.000000 38.644955
v 82.278908 0.000000 17.720839
v 82.278908 0.000000 38.644955
v 44.066944 0.000000 17.720839
v 44.066944 0.000000 38.644955
v 74.809326 0.000000 38.644955
v 74.809326 0.000000 17.720839
v 74.809326 0.000000 81.514481
v 82.278908 0.000000 81.514481
v 74.809326 0.000000 69.759659
v 82.278908 0.000000 69.759659
v 44.091370 0.000000 69.759659
v 44.091370 0.000000 81.514481
v -10.924035 0.000000 11.488027
v 5.634436 0.000000 11.488027
v 19.915180 0.000000 11.488027
v 41.739662 0.000000 11.488027
v -10.924035 0.000000 28.168753
v 5.634436 0.000000 28.168753
v 19.915180 0.000000 28.168753
v 41.739662 0.000000 28.168753
v -79.692085 0.000000 11.488027
v -79.692085 0.000000 28.168753
v -31.821491 0.000000 11.488027
v -31.821491 0.000000 28.168743
v -31.821491 0.000000 -18.001078
v -79.692085 0.000000 -18.001078
v -59.549004 0.000000 28.168743
v -59.549004 0.000000 11.488027
v -59.549004 0.000000 -18.001078
v -71.459976 0.000000 28.168743
v -71.459976 0.000000 11.488027
v -71.459976 0.000000 -18.001078
v 51.419258 0.000000 66.530983
v 44.066944 0.000000 66.530983
v 51.419258 0.000000 42.254616
v 44.066944 0.000000 42.254616
v 82.278999 0.000000 42.254616
v 82.278999 0.000000 66.530983
v 74.809006 0.000000 42.254616
v 74.809006 0.000000 66.530983
vt 0.600240 0.986179
vt 0.535017 0.986179
vt 0.535017 0.686992
vt 0.600240 0.686992
vt 0.614766 0.686992
vt 0.614766 0.986179
vt 0.752427 0.686992
vt 0.752427 0.986179
vt 0.665463 0.986179
vt 0.665463 0.686992
vt 0.600240 0.617733
vt 0.614766 0.617733
vt 0.614766 0.668324
vt 0.600240 0.668324
vt 0.665463 0.668324
vt 0.665463 0.617733
vt 0.745212 0.617733
vt 0.745212 0.668324
vt 0.783403 0.617733
vt 0.783403 0.668324
vt 0.783403 0.555403
vt 0.745212 0.555403
vt 0.745212 0.506318
vt 0.783403 0.506318
vt 0.822047 0.506318
vt 0.822047 0.555403
vt 0.444875 0.617733
vt 0.444875 0.668324
vt 0.377410 0.668324
vt 0.377410 0.617733
vt 0.558217 0.617733
vt 0.558217 0.668324
vt 0.494744 0.668324
vt 0.494744 0.617733
vt 0.600240 0.601315
vt 0.558217 0.601315
vt 0.558217 0.321917
vt 0.600240 0.321917
vt 0.686479 0.321917
vt 0.686479 0.601315
vt 0.471403 0.601315
vt 0.471403 0.321917
vt 0.377410 0.575437
vt 0.444875 0.575437
vt 0.377410 0.473687
vt 0.444875 0.473687
vt 0.349764 0.575437
vt 0.349764 0.473687
vt 0.232570 0.473687
vt 0.232570 0.575437
vt 0.157018 0.575436
vt 0.157018 0.473687
vt 0.232570 0.705668
vt 0.157018 0.705668
vt 0.113315 0.575436
vt 0.113315 0.705668
vt 0.113315 0.473687
vt 0.049657 0.575437
vt 0.049657 0.705668
vt 0.049657 0.473687
vt 0.113315 0.874213
vt 0.157018 0.874213
vt 0.157018 0.948761
vt 0.113315 0.948761
vt 0.001641 0.948761
vt 0.001641 0.874213
vt 0.558217 0.287992
vt 0.600240 0.287992
vt 0.558217 0.192344
vt 0.600240 0.192344
vt 0.746468 0.192344
vt 0.746468 0.287992
vt 0.474256 0.287992
vt 0.474256 0.192344
vt 0.232570 0.385933
vt 0.157018 0.385933
vt 0.377410 0.385933
vt 0.349764 0.385933
vt 0.444875 0.385933
vt 0.113315 0.251824
vt 0.113315 0.385933
vt 0.049657 0.385933
vt 0.049657 0.251824
vt 0.157018 0.251824
vt 0.232570 0.251824
vt 0.377410 0.251824
vt 0.349764 0.251824
vt 0.444875 0.251824
vt 0.558217 0.131024
vt 0.474256 0.131024
vt 0.600240 0.131024
vt 0.746468 0.131024
vt 0.558217 0.035313
vt 0.474256 0.035313
vt 0.600240 0.035313
vt 0.746468 0.035313
vt 0.452299 0.131024
vt 0.452299 0.192344
vt 0.341735 0.192344
vt 0.341735 0.131024
vt 0.341735 0.001992
vt 0.452299 0.001992
vt 0.452299 0.237775
vt 0.341735 0.237775
vt 0.316439 0.192344
vt 0.316439 0.131024
vt 0.204566 0.192344
vt 0.204566 0.131024
vt 0.204566 0.048616
vt 0.316439 0.048616
vt 0.316439 0.237524
vt 0.204566 0.237524
vt 0.204566 0.002716
vt 0.316439 0.002716
vt 0.111694 0.002716
vt 0.111694 0.048616
vt 0.048845 0.048616
vt 0.048845 0.002716
vt 0.111694 0.237373
vt 0.048845 0.237373
vt 0.260578 0.575437
vt 0.260578 0.473687
vt 0.260578 0.385933
vt 0.260578 0.251824
vt 0.349764 0.703849
vt 0.260578 0.703849
vt 0.260578 0.947423
vt 0.349764 0.947423
vt 0.349764 0.998008
vt 0.260578 0.998008
vt 0.507432 0.947423
vt 0.507432 0.998008
vt 0.349764 0.874231
vt 0.260578 0.874231
vt 0.507432 0.874231
vt 0.507432 0.703849
vt 0.000000 0.249233
vt 1.000000 0.249233
vt 1.000000 1.000000
vt 0.000000 1.000000
vt 0.000000 0.000000
vt 1.000000 0.000000
vt 0.000000 0.781141
vt 1.000000 0.781141
vt 1.000000 1.000000
vt 0.000000 1.000000
vt 0.000000 0.000000
vt 1.000000 0.000000
vn 0.000000 1.000000 0.000000
vn 0.000000 1.000000 0.000000
vn 0.000000 1.000000 0.000000
vn 0.000000 1.000000 0.000000
vn 0.000000 1.000000 0.000000
vn 0.000000 1.000000 0.000000
vn 0.000000 1.000000 0.000000
vn 0.000000 1.000000 0.000000
vn 0.000000 1.000000 0.000000
vn 0.000000 1.000000 0.000000
vn 0.000000 1.000000 0.000000
vn 0.000000 1.000000 0.000000
vn 0.000000 1.000000 0.000000
vn 0.000000 1.000000 0.000000
vn 0.000000 1.000000 0.000000
vn 0.000000 1.000000 0.000000
vn 0.000000 1.000000 0.000000
vn 0.000000 1.000000 0.000000
vn 0.000000 1.000000 0.000000
vn 0.000000 1.000000 0.000000
vn 0.000000 1.000000 0.000000
vn 0.000000 1.000000 0.000000
vn 0.000000 1.000000 0.000000
vn 0.000000 1.000000 0.000000
vn 0.000000 1.000000 0.000000
vn 0.000000 1.000000 0.000000
vn 0.000000 1.000000 0.000000
vn 0.000000 1.000000 0.000000
vn 0.000000 1.000000 0.000000
vn 0.000000 1.000000 0.000000
vn 0.000000 1.000000 0.000000
vn 0.000000 1.000000 0.000000
vn 0.000000 1.000000 0.000000
vn 0.000000 1.000000 0.000000
vn 0.000000 1.000000 0.000000
vn 0.000000 1.000000 0.000000
vn 0.000000 1.000000 0.000000
vn 0.000000 1.000000 0.000000
vn 0.000000 1.000000 0.000000
vn 0.000000 1.000000 0.000000
vn 0.000000 1.000000 0.000000
vn 0.000000 1.000000 0.000000
vn 0.000000 1.000000 0.000000
vn 0.000000 1.000000 0.000000
vn 0.000000 1.000000 0.000000
vn 0.000000 1.000000 0.000000
vn 0.000000 1.000000 0.000000
vn 0.000000 1.000000 0.000000
vn 0.000000 1.000000 0.000000
vn 0.000000 1.000000 0.000000
vn 0.000000 1.000000 0.000000
vn 0.000000 1.000000 0.000000
vn 0.000000 1.000000 0.000000
vn 0.000000 1.000000 0.000000
vn 0.000000 1.000000 0.000000
vn 0.000000 1.000000 0.000000
vn 0.000000 1.000000 0.000000
vn 0.000000 1.000000 0.000000
vn 0.000000 1.000000 0.000000
vn 0.000000 1.000000 0.000000
vn 0.000000 1.000000 0.000000
vn 0.000000 1.000000 0.000000
vn 0.000000 1.000000 0.000000
vn 0.000000 1.000000 0.000000
vn 0.000000 1.000000 0.000000
vn 0.000000 1.000000 0.000000
vn 0.000000 1.000000 0.000000
vn 0.000000 1.000000 0.000000
vn 0.000000 1.000000 0.000000
vn 0.000000 1.000000 0.000000
vn 0.000000 1.000000 0.000000
vn 0.000000 1.000000 0.000000
vn 0.000000 1.000000 0.000000
vn 0.000000 1.000000 0.000000
vn 0.000000 1.000000 0.000000
vn 0.000000 1.000000 0.000000
vn 0.000000 1.000000 0.000000
vn 0.000000 1.000000 0.000000
vn 0.000000 1.000000 0.000000
vn 0.000000 1.000000 0.000000
vn 0.000000 1.000000 0.000000
vn 0.000000 1.000000 0.000000
vn 0.000000 1.000000 0.000000
vn 0.000000 1.000000 0.000000
vn 0.000000 1.000000 0.000000
vn 0.000000 1.000000 0.000000
vn 0.000000 1.000000 0.000000
vn 0.000000 1.000000 0.000000
vn 0.000000 1.000000 0.000000
vn 0.000000 1.000000 0.000000
vn 0.000000 1.000000 0.000000
vn 0.000000 1.000000 0.000000
vn 0.000000 1.000000 0.000000
vn 0.000000 1.000000 0.000000
vn 0.000000 1.000000 0.000000
vn 0.000000 1.000000 0.000000
vn 0.000000 1.000000 0.000000
vn 0.000000 1.000000 0.000000
vn 0.000000 1.000000 0.000000
vn 0.000000 1.000000 0.000000
vn 0.000000 1.000000 0.000000
vn 0.000000 1.000000 0.000000
vn 0.000000 1.000000 0.000000
vn 0.000000 1.000000 0.000000
vn 0.000000 1.000000 0.000000
vn 0.000000 1.000000 0.000000
vn 0.000000 1.000000 0.000000
vn 0.000000 1.000000 0.000000
vn 0.000000 1.000000 0.000000
vn 0.000000 1.000000 0.000000
vn 0.000000 1.000000 0.000000
vn 0.000000 1.000000 0.000000
vn 0.000000 1.000000 0.000000
vn 0.000000 1.000000 0.000000
vn 0.000000 1.000000 0.000000
vn 0.000000 1.000000 0.000000
vn 0.000000 1.000000 0.000000
vn 0.000000 1.000000 0.000000
vn 0.000000 1.000000 0.000000
vn 0.000000 1.000000 0.000000
vn 0.000000 1.000000 0.000000
vn 0.000000 1.000000 0.000000
vn 0.000000 1.000000 0.000000
vn 0.000000 1.000000 0.000000
vn 0.000000 1.000000 0.000000
vn 0.000000 1.000000 0.000000
vn 0.000000 1.000000 0.000000
vn 0.000000 1.000000 0.000000
vn 0.000000 1.000000 0.000000
vn 0.000000 1.000000 0.000000
vn 0.000000 1.000000 0.000000
vn 0.000000 1.000000 0.000000
vn 0.000000 1.000000 0.000000
vn 0.000000 1.000000 0.000000
vn 0.000000 1.000000 0.000000
vn 0.000000 1.000000 0.000000
vn 0.000000 1.000000 0.000000
vn 0.000000 1.000000 0.000000
vn 0.000000 1.000000 0.000000
vn 0.000000 1.000000 0.000000
vn 0.000000 1.000000 0.000000
vn 0.000000 1.000000 0.000000
vn 0.000000 1.000000 0.000000
vn 0.000000 1.000000 0.000000
vn 0.000000 1.000000 0.000000
vn 0.000000 1.000000 0.000000
vn 0.000000 1.000000 0.000000
vn 0.000000 1.000000 0.000000
vn 0.000000 1.000000 0.000000
vn 0.000000 1.000000 0.000000
vn 0.000000 1.000000 0.000000
vn 0.000000 1.000000 0.000000
vn 0.000000 1.000000 0.000000
vn 0.000000 1.000000 0.000000
vn 0.000000 1.000000 0.000000
vn 0.000000 1.000000 0.000000
vn 0.000000 1.000000 0.000000
vn 0.000000 1.000000 0.000000
vn 0.000000 1.000000 0.000000
vn 0.000000 1.000000 0.000000
vn 0.000000 1.000000 0.000000
vn 0.000000 1.000000 0.000000
vn 0.000000 1.000000 0.000000
vn 0.000000 1.000000 0.000000
vn 0.000000 1.000000 0.000000
vn 0.000000 1.000000 0.000000
vn 0.000000 1.000000 0.000000
vn 0.000000 1.000000 0.000000
vn 0.000000 1.000000 0.000000
vn 0.000000 1.000000 0.000000
vn 0.000000 1.000000 0.000000
vn 0.000000 1.000000 0.000000
vn 0.000000 1.000000 0.000000
vn 0.000000 1.000000 0.000000
vn 0.000000 1.000000 0.000000
vn 0.000000 1.000000 0.000000
vn 0.000000 1.000000 0.000000
vn 0.000000 1.000000 0.000000
vn 0.000000 1.000000 0.000000
vn 0.000000 1.000000 0.000000
vn 0.000000 1.000000 0.000000
vn 0.000000 1.000000 0.000000
vn 0.000000 1.000000 0.000000
vn 0.000000 1.000000 0.000000
vn 0.000000 1.000000 0.000000
vn 0.000000 1.000000 0.000000
vn 0.000000 1.000000 0.000000
vn 0.000000 1.000000 0.000000
vn 0.000000 1.000000 0.000000
vn 0.000000 1.000000 0.000000
vn 0.000000 1.000000 0.000000
vn 0.000000 1.000000 0.000000
vn 0.000000 1.000000 0.000000
vn 0.000000 1.000000 0.000000
vn 0.000000 1.000000 0.000000
vn 0.000000 1.000000 0.000000
vn 0.000000 1.000000 0.000000
vn 0.000000 1.000000 0.000000
vn 0.000000 1.000000 0.000000
vn 0.000000 1.000000 0.000000
vn 0.000000 1.000000 0.000000
vn 0.000000 1.000000 0.000000
vn 0.000000 1.000000 0.000000
vn 0.000000 1.000000 0.000000
vn 0.000000 1.000000 0.000000
vn 0.000000 1.000000 0.000000
vn 0.000000 1.000000 0.000000
vn 0.000000 1.000000 0.000000
vn 0.000000 1.000000 0.000000
vn 0.000000 1.000000 0.000000
vn 0.000000 1.000000 0.000000
vn 0.000000 1.000000 0.000000
vn 0.000000 1.000000 0.000000
vn 0.000000 1.000000 0.000000
s 1
g polySurface1
f 3/1/1 1/2/2 2/3/3 4/4/4
f 33/5/5 34/6/6 3/1/1 4/4/4
f 8/7/7 7/8/8 5/9/9 6/10/10
f 9/11/11 31/12/12 32/13/13 12/14/14
f 32/13/13 33/5/5 4/4/4 12/14/14
s 3
f 11/15/15 10/16/16 15/17/17 16/18/18
f 16/18/18 15/17/17 14/19/19 13/20/20
s 4
f 19/21/21 20/22/22 17/23/23 18/24/24
f 14/19/25 15/17/26 20/22/22 19/21/21
f 19/21/21 18/24/24 22/25/27 21/26/28
s 1
f 27/27/29 28/28/30 23/29/31 24/30/32
f 29/31/33 30/32/34 26/33/35 25/34/36
f 25/34/36 26/33/35 28/28/30 27/27/29
f 9/11/11 12/14/14 30/32/34 29/31/33
f 31/12/12 10/16/37 11/15/38 32/13/13
f 11/15/38 6/10/10 33/5/5 32/13/13
f 6/10/10 5/9/9 34/6/6 33/5/5
f 37/35/39 38/36/40 36/37/41 35/38/42
f 9/11/11 29/31/33 38/36/40 37/35/39
s off
f 37/35/43 35/38/44 40/39/45 39/40/46
f 36/37/47 38/36/48 41/41/49 42/42/50
s 6
f 27/27/51 24/30/52 45/43/53 46/44/54
f 46/44/54 45/43/53 77/45/55 78/46/56
s 7
f 77/45/57 45/43/58 117/47/59 118/48/60
s 8
f 76/49/61 49/50/62 54/51/63 75/52/64
s 9
f 54/51/65 49/50/66 51/53/67 53/54/68
f 57/55/69 54/51/65 53/54/68 56/56/70
s 8
f 75/52/64 54/51/63 57/55/71 74/57/72
s 9
f 47/58/73 57/55/69 56/56/70 52/59/74
s 8
f 74/57/72 57/55/71 47/58/75 73/60/76
s 10
f 61/61/77 62/62/78 59/63/79 60/64/80
f 56/56/81 53/54/82 62/62/78 61/61/77
f 61/61/77 60/64/80 64/65/83 63/66/84
s off
f 35/38/85 36/37/86 66/67/87 65/68/88
s 11
f 65/68/89 66/67/90 86/69/91 87/70/92
s 12
f 65/68/93 87/70/94 88/71/95 69/72/96
s 13
f 86/69/97 66/67/98 71/73/99 85/74/100
s 8
f 82/75/101 76/49/61 75/52/64 81/76/102
s 7
f 83/77/103 77/45/57 118/48/60 119/78/104
s 6
f 78/46/56 77/45/55 83/77/105 84/79/106
s 8
f 58/80/107 80/81/108 79/82/109 48/83/110
f 55/84/111 81/76/102 80/81/108 58/80/107
f 50/85/112 82/75/101 81/76/102 55/84/111
s 7
f 44/86/113 83/77/103 119/78/104 120/87/114
s 6
f 84/79/106 83/77/105 44/86/115 43/88/116
s 13
f 90/89/117 86/69/97 85/74/100 89/90/118
s 11
f 87/70/92 86/69/91 90/89/119 91/91/120
s 12
f 88/71/95 87/70/94 91/91/121 92/92/122
s 13
f 68/93/123 90/89/117 89/90/118 72/94/124
s 11
f 91/91/120 90/89/119 68/93/125 67/95/126
s 12
f 92/92/122 91/91/121 67/95/127 70/96/128
s 15
f 95/97/129 96/98/130 93/99/131 94/100/132
f 89/90/133 85/74/134 96/98/130 95/97/129
s off
f 95/97/135 94/100/136 98/101/137 97/102/138
f 93/99/139 96/98/140 99/103/141 100/104/142
f 94/100/143 93/99/144 101/105/145 102/106/146
f 102/106/147 101/105/148 103/107/149 104/108/150
s 16
f 102/106/151 104/108/152 109/109/153 110/110/154
s off
f 103/107/155 101/105/156 107/111/157 108/112/158
s 16
f 110/110/154 109/109/153 106/113/159 105/114/160
s off
f 114/115/161 113/116/162 111/117/163 112/118/164
f 111/117/165 113/116/166 115/119/167 116/120/168
s 7
f 118/48/60 117/47/59 121/121/169 122/122/170
f 119/78/104 118/48/60 122/122/170 123/123/171
f 120/87/114 119/78/104 123/123/171 124/124/172
f 122/122/170 121/121/169 49/50/173 76/49/174
f 123/123/171 122/122/170 76/49/174 82/75/175
f 124/124/172 123/123/171 82/75/175 50/85/176
s 17
f 121/121/177 117/47/178 127/125/179 128/126/180
f 134/127/181 135/128/182 125/129/183 126/130/184
s 19
f 125/129/185 135/128/186 136/131/187 130/132/188
s 17
f 128/126/180 127/125/179 132/133/189 131/134/190
s 19
f 133/135/191 132/133/192 127/125/193 129/136/194
s 17
f 131/134/190 132/133/189 135/128/182 134/127/181
s 19
f 136/131/187 135/128/186 132/133/192 133/135/191
s off
f 131/134/195 134/127/196 59/63/197 62/62/198
s 20
f 139/137/199 140/138/200 138/139/201 137/140/202
f 103/141/203 108/142/204 140/138/200 139/137/199
s 21
f 143/143/205 144/144/206 142/145/207 141/146/208
f 139/147/209 137/148/210 144/144/206 143/143/205
s off
f 113/116/211 114/115/212 142/145/213 144/144/214
